<svg width="12" height="9" viewBox="0 0 12 9" fill="none" xmlns="http://www.w3.org/2000/svg">
<path d="M1.53033 2.46967C1.23744 2.17678 0.762563 2.17678 0.46967 2.46967C0.176777 2.76256 0.176777 3.23744 0.46967 3.53033L1.53033 2.46967ZM5 7L4.46967 7.53033L5 8.06066L5.53033 7.53033L5 7ZM11.5303 1.53033C11.8232 1.23744 11.8232 0.762563 11.5303 0.46967C11.2374 0.176777 10.7626 0.176777 10.4697 0.46967L11.5303 1.53033ZM0.46967 3.53033L4.46967 7.53033L5.53033 6.46967L1.53033 2.46967L0.46967 3.53033ZM5.53033 7.53033L11.5303 1.53033L10.4697 0.46967L4.46967 6.46967L5.53033 7.53033Z" fill="#8A1E9C"/>
</svg>
