<svg width="48" height="48" viewBox="0 0 48 48" fill="none" xmlns="http://www.w3.org/2000/svg">
<path d="M27 46H7C3.2 46 0 42.8 0 39V7C0 3.2 3.2 0 7 0H39C42.8 0 46 3.2 46 7V27C46 27.4 45.8 27.8 45.2 28C44.8 28.2 44.4 28 44 27.6C42 24.2 38.2 22 34 22C27.4 22 22 27.4 22 34C22 38.2 24.2 42 27.6 44.2C28 44.4 28.2 44.8 28 45.4C28 45.8 27.6 46 27 46ZM7 2C4.2 2 2 4.2 2 7V39C2 41.8 4.2 44 7 44H24.2C21.6 41.4 20 37.8 20 34C20 26.2 26.2 20 34 20C37.8 20 41.4 21.6 44 24.2V7C44 4.2 41.8 2 39 2H7Z" fill="#00B956"/>
<path d="M34 48C26.2 48 20 41.8 20 34C20 26.2 26.2 20 34 20C41.8 20 48 26.2 48 34C48 41.8 41.8 48 34 48ZM34 22C27.4 22 22 27.4 22 34C22 40.6 27.4 46 34 46C40.6 46 46 40.6 46 34C46 27.4 40.6 22 34 22Z" fill="#00B956"/>
<path d="M19 14H7C6.4 14 6 13.6 6 13C6 12.4 6.4 12 7 12H19C19.6 12 20 12.4 20 13C20 13.6 19.6 14 19 14Z" fill="#00B956"/>
<path d="M13 20C12.4 20 12 19.6 12 19V7C12 6.4 12.4 6 13 6C13.6 6 14 6.4 14 7V19C14 19.6 13.6 20 13 20Z" fill="#00B956"/>
<path d="M39 14H29C28.4 14 28 13.6 28 13C28 12.4 28.4 12 29 12H39C39.6 12 40 12.4 40 13C40 13.6 39.6 14 39 14Z" fill="#00B956"/>
<path d="M17 40C16.8 40 16.4 40 16.2 39.8L6.2 29.8C5.8 29.4 5.8 28.8 6.2 28.4C6.6 28 7.2 28 7.6 28.4L17.6 38.4C18 38.8 18 39.4 17.6 39.8C17.6 40 17.2 40 17 40Z" fill="#00B956"/>
<path d="M7 40C6.8 40 6.4 40 6.2 39.8C5.8 39.4 5.8 38.8 6.2 38.4L16.2 28.4C16.6 28 17.2 28 17.6 28.4C18 28.8 18 29.4 17.6 29.8L7.6 39.8C7.6 40 7.2 40 7 40Z" fill="#00B956"/>
<path d="M39 32H29C28.4 32 28 31.6 28 31C28 30.4 28.4 30 29 30H39C39.6 30 40 30.4 40 31C40 31.6 39.6 32 39 32Z" fill="#00B956"/>
<path d="M39 38H29C28.4 38 28 37.6 28 37C28 36.4 28.4 36 29 36H39C39.6 36 40 36.4 40 37C40 37.6 39.6 38 39 38Z" fill="#00B956"/>
</svg>
