<svg width="33" height="34" viewBox="0 0 33 34" fill="none" xmlns="http://www.w3.org/2000/svg">
<path d="M13.6304 34C14.819 34 15.7826 33.3657 15.7826 32.5833C15.7826 31.8009 14.819 31.1667 13.6304 31.1667C12.4418 31.1667 11.4783 31.8009 11.4783 32.5833C11.4783 33.3657 12.4418 34 13.6304 34Z" fill="#00B956"/>
<path d="M19.3696 32.5833C20.5582 32.5833 21.5217 31.9491 21.5217 31.1667C21.5217 30.3843 20.5582 29.75 19.3696 29.75C18.181 29.75 17.2174 30.3843 17.2174 31.1667C17.2174 31.9491 18.181 32.5833 19.3696 32.5833Z" fill="#00B956"/>
<path d="M15.0652 33.2917C14.6348 33.2917 14.3478 33.0083 14.3478 32.5833V24.7917C14.3478 24.5083 14.6348 24.225 14.9217 24.0833L20.6609 22.6667C20.8043 22.6667 21.0913 22.6667 21.2348 22.8083C21.3783 22.95 21.5217 23.0917 21.5217 23.375V31.1667C21.5217 31.5917 21.2348 31.875 20.8043 31.875C20.3739 31.875 20.087 31.5917 20.087 31.1667V24.225L15.7826 25.3583V32.5833C15.7826 33.0083 15.4957 33.2917 15.0652 33.2917Z" fill="#00B956"/>
<path d="M29.413 26.9167H23.6739C23.2435 26.9167 22.9565 26.6333 22.9565 26.2083C22.9565 25.7833 23.2435 25.5 23.6739 25.5H29.413C30.5609 25.5 31.5652 24.5083 31.5652 23.375V10.625C31.5652 9.49167 30.5609 8.5 29.413 8.5H12.7696C11.1913 8.5 9.9 7.50833 9.32609 6.09167V5.66667C9.03913 4.81667 8.17826 4.25 7.31739 4.25H3.58696C2.43913 4.25 1.43478 5.24167 1.43478 6.375V23.375C1.43478 24.5083 2.43913 25.5 3.58696 25.5H12.1957C12.6261 25.5 12.913 25.7833 12.913 26.2083C12.913 26.6333 12.6261 26.9167 12.1957 26.9167H3.58696C1.57826 26.9167 0 25.3583 0 23.375V6.375C0 4.39167 1.57826 2.83333 3.58696 2.83333H7.31739C8.89565 2.83333 10.187 3.825 10.7609 5.24167V5.66667C11.0478 6.51667 11.9087 7.08333 12.7696 7.08333H29.413C31.4217 7.08333 33 8.64167 33 10.625V23.375C33 25.3583 31.4217 26.9167 29.413 26.9167Z" fill="#00B956"/>
<path d="M30.8478 8.5C30.4174 8.5 30.1304 8.21667 30.1304 7.79167V3.54167C30.1304 2.40833 29.1261 1.41667 27.9783 1.41667H5.02174C3.87391 1.41667 2.86957 2.40833 2.86957 3.54167C2.86957 3.96667 2.58261 4.25 2.15217 4.25C1.72174 4.25 1.43478 3.96667 1.43478 3.54167C1.43478 1.55833 3.01304 0 5.02174 0H27.9783C29.987 0 31.5652 1.55833 31.5652 3.54167V7.79167C31.5652 8.21667 31.2783 8.5 30.8478 8.5Z" fill="#00B956"/>
</svg>
