<svg width="40" height="30" viewBox="0 0 40 30" fill="none" xmlns="http://www.w3.org/2000/svg">
<path d="M32.5 30V28.3333H38.3333C38 26.1667 36.5 24.3333 34.3333 23.8333L29.3333 22.5C29 22.5 28.8333 22.1667 28.6667 21.8333L28.1667 19.6667C28.1667 19.5 28.1667 19.1667 28.3333 19C28.5 18.8333 28.6667 18.6667 28.8333 18.6667C30.8333 18.3333 32.1667 18 33 17.6667C32.1667 16.5 31 14 31 9.33333C31 5.16667 30.1667 2.83333 28.8333 2.83333H28.1667C28 2.83333 27.6667 2.66667 27.5 2.66667C26.8333 2 26.5 1.66667 25.1667 1.66667C24.8333 1.66667 24.6667 1.5 24.5 1.33333C24.3333 1.16667 24.3333 0.833333 24.5 0.5C24.5 0.166667 24.8333 0 25.1667 0C26.8333 0 27.5 0.333333 28.3333 1.16667H28.6667C31.3333 1.16667 32.5 4 32.5 9.33333C32.5 15.5 34.6667 17.3333 34.6667 17.3333C34.8333 17.5 35 17.8333 35 18C35 18.1667 34.8333 18.5 34.6667 18.6667C34.6667 18.6667 33 19.6667 29.8333 20.1667L30 20.8333L34.6667 22C37.8333 22.8333 40 25.6667 40 29C40 29.5 39.6667 29.8333 39.1667 29.8333L32.5 30Z" fill="#00B956"/>
<path d="M0.833333 30C0.666667 30 0.333333 29.8333 0.166667 29.8333C0 29.8333 0 29.3333 0 29.1667C0 25.8333 2.16667 23 5.33333 22.1667L10 21.1667L10.3333 19.6667C9.16667 18.3333 8.5 16.8333 8.16667 15.1667C7.33333 15 6.83333 14.3333 6.66667 13.3333L6.33333 11C6.33333 10.3333 6.5 9.83333 6.83333 9.33333C7 9.16667 7.33333 8.83333 7.66667 8.83333C7.5 8 7.33333 6.83333 7.33333 6.33333C7.33333 4 8 1.33333 13.5 1.16667C15.3333 0 17.3333 0 18.1667 0C20.5 0 22 0.666667 23 2.16667C24.3333 4.16667 23.6667 5.5 22.8333 6.33333L22.6667 6.66667L22.5 8.83333C22.8333 9 23 9.16667 23.1667 9.33333C23.5 9.83333 23.6667 10.3333 23.6667 11L23.3333 13.3333C23.1667 14.1667 22.6667 14.8333 22 15C21.6667 16.6667 20.8333 18.3333 19.6667 19.6667L20 21L24.6667 22.1667C27.8333 23 30 25.8333 30 29.1667C30 29.6667 29.6667 30 29.1667 30H0.833333ZM1.66667 28.3333H28.3333C28 26.1667 26.5 24.3333 24.3333 23.8333L19.3333 22.5C19 22.5 18.8333 22.1667 18.6667 21.8333L18.1667 19.5C18.1667 19.1667 18.1667 18.8333 18.5 18.6667C19.8333 17.5 20.6667 15.8333 20.6667 14.1667C20.6667 13.6667 21 13.3333 21.5 13.3333C21.5 13.5 21.6667 13.3333 21.6667 13.1667L22 10.6667C22 10.5 22 10.3333 21.8333 10.3333C21.8333 10.3333 21.6667 10.1667 21.5 10.1667C21.3333 10.1667 21 10 20.8333 9.83333C20.6667 9.66667 20.6667 9.5 20.6667 9.16667L20.8333 6.16667C20.8333 6 21 5.83333 21 5.66667L21.6667 5C22 4.66667 22.3333 4 21.5 3C21 2.16667 19.8333 1.66667 18.1667 1.66667C17 1.66667 15.5 1.83333 14.1667 2.66667C14.1667 2.83333 14 2.83333 13.8333 2.83333C9.16667 2.83333 9.16667 4.83333 9.16667 6.33333C9.16667 7 9.33333 8.66667 9.5 9.33333C9.5 9.5 9.5 9.83333 9.33333 10C9 10.1667 8.83333 10.3333 8.5 10.3333C8.16667 10.3333 8.16667 10.5 8 10.5C7.83333 10.5 8 10.5 8 10.6667L8.33333 13.1667C8.33333 13.3333 8.5 13.5 8.66667 13.5H8.83333C9.33333 13.5 9.66667 13.8333 9.66667 14.3333C9.83333 16 10.6667 17.6667 11.8333 18.8333C12 19 12.1667 19.3333 12 19.6667L11.3333 22C11.3333 22.3333 11 22.5 10.6667 22.6667L5.66667 24C3.66667 24.3333 2 26.1667 1.66667 28.3333Z" fill="#00B956"/>
</svg>
