<svg width="32" height="32" viewBox="0 0 32 32" fill="none" xmlns="http://www.w3.org/2000/svg">
<path d="M27.3333 32H4.66667C2.13333 32 0 29.8567 0 27.3115V13.9158C0 11.2366 2.13333 9.22727 4.66667 9.22727H27.3333C29.8667 9.22727 32 11.3706 32 13.9158V27.3115C32 29.8567 29.8667 32 27.3333 32ZM4.66667 10.5668C2.8 10.5668 1.33333 12.0404 1.33333 13.9158V27.3115C1.33333 29.0529 2.8 30.6604 4.66667 30.6604H27.3333C29.2 30.6604 30.6667 29.1869 30.6667 27.3115V13.9158C30.6667 12.0404 29.2 10.5668 27.3333 10.5668H4.66667Z" fill="#00B956"/>
<path d="M26 22.623C24.9333 22.623 24 21.6853 24 20.6136C24 19.542 24.9333 18.6043 26 18.6043C27.0667 18.6043 28 19.542 28 20.6136C28 21.6853 27.0667 22.623 26 22.623ZM26 19.9438C25.6 19.9438 25.3333 20.2118 25.3333 20.6136C25.3333 21.0155 25.6 21.2834 26 21.2834C26.4 21.2834 26.6667 21.0155 26.6667 20.6136C26.6667 20.2118 26.4 19.9438 26 19.9438Z" fill="#00B956"/>
<path d="M31.3333 25.3021H26C23.4667 25.3021 21.3333 23.1588 21.3333 20.6136C21.3333 18.0684 23.4667 15.9251 26 15.9251H31.3333C31.7333 15.9251 32 16.193 32 16.5949V24.6324C32 24.9003 31.7333 25.3021 31.3333 25.3021ZM26 17.2647C24.1333 17.2647 22.6667 18.7382 22.6667 20.6136C22.6667 22.489 24.1333 23.9626 26 23.9626H30.6667V17.2647H26Z" fill="#00B956"/>
<path d="M0.666667 14.5856C0.266667 14.5856 0 14.1837 0 13.9158C0 11.2366 1.6 8.8254 4.13333 7.75374L21.0667 0.654005C22.6667 -0.149739 24.4 -0.283696 25.7333 0.654005C27.0667 1.45775 27.8667 2.93128 27.8667 4.67272V10.031C28 10.165 27.7333 10.5668 27.3333 10.5668C26.9333 10.5668 26.6667 10.165 26.6667 9.89706V4.53877C26.6667 3.33315 26.1333 2.26149 25.0667 1.72566C24 1.18983 22.8 1.18983 21.6 1.85962L4.66667 8.95935C2.66667 9.7631 1.33333 11.6385 1.33333 13.9158C1.33333 14.1837 1.06667 14.5856 0.666667 14.5856Z" fill="#00B956"/>
<path d="M12.6667 10.5668C12.4 10.5668 12.1333 10.2989 12 10.031C11.8667 9.7631 12.1333 9.36123 12.4 9.22727L23.0667 5.20855C23.4667 5.07459 23.7333 5.20855 23.8667 5.61042C24 6.0123 23.8667 6.28021 23.4667 6.41417L12.8 10.4329C12.8 10.5668 12.8 10.5668 12.6667 10.5668Z" fill="#00B956"/>
</svg>
