<svg width="20" height="20" viewBox="0 0 20 20" fill="none" xmlns="http://www.w3.org/2000/svg">
<path d="M17.8261 20H8.26087C7.04348 20 6.08696 19.0435 6.08696 17.8261V13.4783C6.08696 13.2174 6.26087 13.0435 6.52174 13.0435C6.78261 13.0435 6.95652 13.2174 6.95652 13.4783V17.8261C6.95652 18.5217 7.56522 19.1304 8.26087 19.1304H17.8261C18.5217 19.1304 19.1304 18.5217 19.1304 17.8261V2.17391C19.1304 1.47826 18.5217 0.869565 17.8261 0.869565H8.26087C7.56522 0.869565 6.95652 1.47826 6.95652 2.17391V6.52174C6.95652 6.78261 6.78261 6.95652 6.52174 6.95652C6.26087 6.95652 6.08696 6.78261 6.08696 6.52174V2.17391C6.08696 0.956522 7.04348 0 8.26087 0H17.8261C19.0435 0 20 0.956522 20 2.17391V17.8261C20 19.0435 19.0435 20 17.8261 20Z" fill="#00B956"/>
<path d="M11.7391 10.4348H0.434783C0.173913 10.4348 0 10.2609 0 10C0 9.73913 0.173913 9.56522 0.434783 9.56522H11.7391C12 9.56522 12.1739 9.73913 12.1739 10C12.1739 10.2609 12 10.4348 11.7391 10.4348Z" fill="#00B956"/>
<path d="M8.26087 13.913C8.17391 13.913 8 13.913 7.91304 13.8261C7.73913 13.6522 7.73913 13.3913 7.91304 13.2174L11.0435 10.087L7.91304 6.86957C7.82609 6.69565 7.82609 6.34783 7.91304 6.17391C8 6 8.34783 6 8.52174 6.17391L12 9.65217C12.1739 9.82609 12.1739 10.087 12 10.2609L8.52174 13.7391C8.52174 13.913 8.34783 13.913 8.26087 13.913Z" fill="#00B956"/>
</svg>
