<svg width="20" height="20" viewBox="0 0 20 20" fill="none" xmlns="http://www.w3.org/2000/svg">
<path d="M10 20C9.91667 20 9.83333 20 9.75 19.9167C9.33333 19.5833 0 12.25 0 5.66667C0 2.5 2.5 0 5.66667 0C7.41667 0 9 0.75 10 2.08333C11.0833 0.75 12.6667 0 14.3333 0C17.5 0 20 2.5 20 5.66667C20 12.3333 10.6667 19.6667 10.25 19.9167C10.1667 20 10.0833 20 10 20ZM5.66667 0.833333C3 0.833333 0.833333 3 0.833333 5.66667C0.833333 11.3333 8.5 17.8333 10 19.0833C11.5 17.8333 19.1667 11.3333 19.1667 5.66667C19.1667 3 17 0.833333 14.3333 0.833333C12.6667 0.833333 11.1667 1.66667 10.3333 3C10.25 3.08333 10.1667 3.16667 10 3.16667C9.83333 3.16667 9.75 3.08333 9.66667 3C8.75 1.66667 7.25 0.833333 5.66667 0.833333Z" fill="#00B956"/>
</svg>
