<svg width="19" height="22" viewBox="0 0 19 22" fill="none" xmlns="http://www.w3.org/2000/svg">
<path d="M9.5 22C4.25238 22 0 17.6917 0 12.375C0 7.05833 4.25238 2.75 9.5 2.75C14.7476 2.75 19 7.05833 19 12.375C19 17.6917 14.7476 22 9.5 22ZM9.5 3.66667C4.79524 3.66667 0.904762 7.60833 0.904762 12.375C0.904762 17.1417 4.79524 21.0833 9.5 21.0833C14.2048 21.0833 18.0952 17.1417 18.0952 12.375C18.0952 7.60833 14.2048 3.66667 9.5 3.66667Z" fill="#00B956"/>
<path d="M10.4048 3.66667C10.1333 3.66667 9.95238 3.48333 9.95238 3.20833V0.916667H9.04762V3.20833C9.04762 3.48333 8.86667 3.66667 8.59524 3.66667C8.32381 3.66667 8.14286 3.48333 8.14286 3.20833V0.458333C8.14286 0.183333 8.32381 0 8.59524 0H10.4048C10.6762 0 10.8571 0.183333 10.8571 0.458333V3.20833C10.8571 3.48333 10.6762 3.66667 10.4048 3.66667Z" fill="#00B956"/>
<path d="M11.3095 0.916667H7.69048C7.41905 0.916667 7.2381 0.733333 7.2381 0.458333C7.2381 0.183333 7.41905 0 7.69048 0H11.3095C11.581 0 11.7619 0.183333 11.7619 0.458333C11.7619 0.733333 11.581 0.916667 11.3095 0.916667Z" fill="#00B956"/>
<path d="M12.2143 15.5833C12.1238 15.5833 11.9429 15.5833 11.8524 15.4917L9.1381 12.7417C9.04762 12.65 9.04762 12.5583 9.04762 12.375V5.95833C9.04762 5.68333 9.22857 5.5 9.5 5.5C9.77143 5.5 9.95238 5.68333 9.95238 5.95833V12.1917L12.5762 14.85C12.7571 15.0333 12.7571 15.3083 12.5762 15.4917C12.4857 15.5833 12.3048 15.5833 12.2143 15.5833Z" fill="#00B956"/>
<path d="M14.9286 5.5C14.8381 5.5 14.7476 5.5 14.6571 5.40833C14.4762 5.225 14.3857 4.95 14.5667 4.76667L15.9238 2.93333C16.1048 2.75 16.3762 2.65833 16.5571 2.84167C16.7381 3.025 16.8286 3.3 16.6476 3.48333L15.2905 5.31667C15.2 5.40833 15.1095 5.5 14.9286 5.5Z" fill="#00B956"/>
</svg>
