<svg width="24" height="24" viewBox="0 0 24 24" fill="none" xmlns="http://www.w3.org/2000/svg">
<path d="M18.5 24H5.5C2.5 24 0 21.5 0 18.5V5.5C0 2.5 2.5 0 5.5 0H18.5C21.5 0 24 2.5 24 5.5V18.5C24 21.5 21.5 24 18.5 24ZM5.5 1C3 1 1 3 1 5.5V18.5C1 21 3 23 5.5 23H18.5C21 23 23 21 23 18.5V5.5C23 3 21 1 18.5 1H5.5Z" fill="white"/>
<path d="M10.5 17H7.5C7.2 17 7 16.8 7 16.5V7.5C7 7.2 7.2 7 7.5 7H10.5C10.8 7 11 7.2 11 7.5V16.5C11 16.8 10.8 17 10.5 17ZM8 16H10V8H8V16Z" fill="white"/>
<path d="M16.5 17H13.5C13.2 17 13 16.8 13 16.5V7.5C13 7.2 13.2 7 13.5 7H16.5C16.8 7 17 7.2 17 7.5V16.5C17 16.8 16.8 17 16.5 17ZM14 16H16V8H14V16Z" fill="white"/>
</svg>
