<svg width="27" height="38" viewBox="0 0 27 38" fill="none" xmlns="http://www.w3.org/2000/svg">
<path d="M13.5 38C13.3412 38 13.1824 38 13.0235 37.8417C12.3882 37.3667 0 26.4417 0 13.4583C0 6.01667 6.03529 0 13.5 0C20.9647 0 27 6.01667 27 13.4583C27 26.4417 14.6118 37.3667 13.9765 37.8417C13.8176 38 13.6588 38 13.5 38ZM13.5 1.58333C6.98824 1.58333 1.58824 6.96667 1.58824 13.4583C1.58824 24.225 11.1176 33.8833 13.5 36.1C15.8824 33.8833 25.4118 24.225 25.4118 13.4583C25.4118 6.96667 20.0118 1.58333 13.5 1.58333Z" fill="#00B956"/>
<path d="M13.5 22.1667C8.73529 22.1667 4.76471 18.2083 4.76471 13.4583C4.76471 8.70833 8.73529 4.75 13.5 4.75C18.2647 4.75 22.2353 8.70833 22.2353 13.4583C22.2353 18.2083 18.2647 22.1667 13.5 22.1667ZM13.5 6.33333C9.52941 6.33333 6.35294 9.5 6.35294 13.4583C6.35294 17.4167 9.52941 20.5833 13.5 20.5833C17.4706 20.5833 20.6471 17.4167 20.6471 13.4583C20.6471 9.5 17.4706 6.33333 13.5 6.33333Z" fill="#00B956"/>
<path d="M11.9118 17.4167C11.7529 17.4167 11.4353 17.4167 11.2765 17.2583L8.1 14.0917C7.94118 13.775 7.94118 13.1417 8.1 12.825C8.41765 12.6667 9.05294 12.6667 9.37059 12.825L11.9118 15.3583L17.6294 9.65833C17.9471 9.34167 18.4235 9.34167 18.7412 9.65833C19.0588 9.975 19.0588 10.45 18.7412 10.7667L12.3882 17.1C12.3882 17.4167 12.0706 17.4167 11.9118 17.4167Z" fill="#00B956"/>
</svg>
