<svg width="35" height="35" viewBox="0 0 35 35" fill="none" xmlns="http://www.w3.org/2000/svg">
<path d="M17.5 35C7.91304 35 0 27.087 0 17.5C0 7.91304 7.91304 0 17.5 0C27.087 0 35 7.91304 35 17.5C35 27.087 27.087 35 17.5 35ZM17.5 1.52174C8.67391 1.52174 1.52174 8.67391 1.52174 17.5C1.52174 26.3261 8.67391 33.4783 17.5 33.4783C26.3261 33.4783 33.4783 26.3261 33.4783 17.5C33.4783 8.67391 26.3261 1.52174 17.5 1.52174Z" fill="#00B956"/>
<path d="M26.6304 18.2609H17.5C17.0435 18.2609 16.7391 17.9565 16.7391 17.5V5.32609C16.7391 4.86957 17.0435 4.56522 17.5 4.56522C17.9565 4.56522 18.2609 4.86957 18.2609 5.32609V16.7391H26.6304C27.087 16.7391 27.3913 17.0435 27.3913 17.5C27.3913 17.9565 27.087 18.2609 26.6304 18.2609Z" fill="#00B956"/>
</svg>
