<svg width="33" height="42" viewBox="0 0 33 42" fill="none" xmlns="http://www.w3.org/2000/svg">
<path d="M16.5 42C7.46842 42 0 36.05 0 28.875C0 23.8 11.1158 12.075 12.3316 10.85C12.5053 10.675 12.8526 10.5 13.0263 10.5H19.9737C20.1474 10.5 20.4947 10.675 20.6684 10.85C21.8842 12.25 33 23.975 33 28.875C33 36.05 25.5316 42 16.5 42ZM13.3737 12.25C9.9 15.925 1.73684 25.375 1.73684 28.875C1.73684 35.175 8.33684 40.25 16.5 40.25C24.6632 40.25 31.2632 35.175 31.2632 28.875C31.2632 25.375 23.1 15.925 19.6263 12.25H13.3737Z" fill="#00B956"/>
<path d="M23.4474 12.25H9.55263C9.03158 12.25 8.68421 11.9 8.68421 11.375C8.68421 10.85 9.03158 10.5 9.55263 10.5H23.4474C23.9684 10.5 24.3158 10.85 24.3158 11.375C24.3158 11.9 23.9684 12.25 23.4474 12.25Z" fill="#00B956"/>
<path d="M19.9737 12.25H13.0263C12.8526 12.25 12.6789 12.25 12.5053 12.075C11.8105 11.375 5.21053 6.125 4.86316 2.8C4.86316 2.1 5.03684 1.575 5.38421 1.05C6.94737 -0.525 10.5947 1.75 12.8526 3.15C13.7211 1.75 15.2842 0 16.5 0C17.7158 0 19.2789 1.75 20.1474 3.15C22.4053 1.75 26.0526 -0.525 27.6158 1.225C27.9632 1.75 28.1368 2.275 28.1368 2.975C27.7895 6.3 21.3632 11.55 20.4947 12.25C20.3211 12.25 20.1474 12.25 19.9737 12.25ZM13.3737 10.5H19.6263C22.2316 8.4 26.2263 4.55 26.4 2.625C26.4 2.45 26.4 2.275 26.2263 2.275C25.7053 1.925 22.9263 3.325 20.4947 5.075C20.3211 5.25 19.9737 5.25 19.8 5.25C19.6263 5.25 19.2789 5.075 19.2789 4.9C18.2368 3.325 17.0211 1.75 16.5 1.75C16.1526 1.75 14.7632 3.325 13.7211 4.9C13.5474 5.075 13.3737 5.25 13.2 5.25C13.0263 5.25 12.6789 5.25 12.5053 5.075C9.9 3.15 7.29474 2.1 6.77368 2.275C6.77368 2.275 6.6 2.45 6.77368 2.625C6.77368 4.55 10.7684 8.4 13.3737 10.5Z" fill="#00B956"/>
<path d="M16.5 35C14.2421 35 12.3316 33.6 12.1579 31.675C12.1579 31.15 12.5053 30.8 13.0263 30.8C13.3737 30.8 13.8947 31.15 13.8947 31.675C13.8947 32.55 15.1105 33.25 16.5 33.25C17.8895 33.25 19.1053 32.375 19.1053 31.5C19.1053 30.625 18.2368 30.1 16.5 29.75H16.3263C13.5474 29.225 12.1579 28 12.1579 26.25C12.1579 24.325 14.0684 22.75 16.5 22.75C18.7579 22.75 20.6684 24.15 20.8421 26.075C20.8421 26.6 20.4947 26.95 19.9737 26.95C19.4526 26.95 19.1053 26.6 19.1053 26.075C19.1053 25.2 17.8895 24.5 16.5 24.5C15.1105 24.5 13.8947 25.375 13.8947 26.25C13.8947 27.125 14.7632 27.65 16.5 28H16.6737C19.4526 28.525 20.8421 29.75 20.8421 31.5C20.8421 33.425 18.9316 35 16.5 35Z" fill="#00B956"/>
<path d="M16.5 36.75C15.9789 36.75 15.6316 36.4 15.6316 35.875V21.875C15.6316 21.35 15.9789 21 16.5 21C17.0211 21 17.3684 21.35 17.3684 21.875V35.875C17.3684 36.4 17.0211 36.75 16.5 36.75Z" fill="#00B956"/>
</svg>
