<svg width="36" height="36" viewBox="0 0 36 36" fill="none" xmlns="http://www.w3.org/2000/svg">
<path d="M18 36C8.1 36 0 27.9 0 18C0 8.1 8.1 0 18 0C27.9 0 36 8.1 36 18C36 27.9 27.9 36 18 36ZM18 1.5C8.85 1.5 1.5 8.85 1.5 18C1.5 27.15 8.85 34.5 18 34.5C27.15 34.5 34.5 27.15 34.5 18C34.5 8.85 27.15 1.5 18 1.5Z" fill="#00B956"/>
<path d="M11.25 15C10.05 15 9 13.95 9 12.75C9 11.55 10.05 10.5 11.25 10.5C12.45 10.5 13.5 11.55 13.5 12.75C13.5 13.95 12.45 15 11.25 15ZM11.25 12C10.8 12 10.5 12.3 10.5 12.75C10.5 13.2 10.8 13.5 11.25 13.5C11.7 13.5 12 13.2 12 12.75C12 12.3 11.7 12 11.25 12Z" fill="#00B956"/>
<path d="M24.75 15C23.55 15 22.5 13.95 22.5 12.75C22.5 11.55 23.55 10.5 24.75 10.5C25.95 10.5 27 11.55 27 12.75C27 13.95 25.95 15 24.75 15ZM24.75 12C24.3 12 24 12.3 24 12.75C24 13.2 24.3 13.5 24.75 13.5C25.2 13.5 25.5 13.2 25.5 12.75C25.5 12.3 25.2 12 24.75 12Z" fill="#00B956"/>
<path d="M18 28.5C14.4 28.5 11.1 26.7 9.15 23.7C9 23.25 9 22.8 9.45 22.65C9.75 22.5 10.2 22.5 10.5 22.95C12.15 25.5 14.85 27 18 27C21.15 27 23.85 25.5 25.65 22.8C25.95 22.5 26.4 22.35 26.7 22.5C27 22.65 27.15 23.25 27 23.55C24.9 26.7 21.6 28.5 18 28.5Z" fill="#00B956"/>
</svg>
