<svg width="32" height="43" viewBox="0 0 32 43" fill="none" xmlns="http://www.w3.org/2000/svg">
<path d="M31.1111 43H0.888889C0.355556 43 0 42.6417 0 42.1042V11.6458C0 11.4667 0.177778 11.1083 0.177778 10.9292L10.8444 0.179167C11.0222 0.179167 11.3778 0 11.5556 0H31.1111C31.6444 0 32 0.358333 32 0.895833V42.1042C32 42.6417 31.6444 43 31.1111 43ZM1.77778 41.2083H30.2222V1.79167H11.9111L1.77778 12.0042V41.2083Z" fill="#00B956"/>
<path d="M11.5556 12.5417H0.888889C0.355556 12.5417 0 12.1833 0 11.6458C0 11.1083 0.355556 10.75 0.888889 10.75H10.6667V0.895833C10.6667 0.358333 11.0222 0 11.5556 0C12.0889 0 12.4444 0.358333 12.4444 0.895833V11.6458C12.4444 12.1833 12.0889 12.5417 11.5556 12.5417Z" fill="#00B956"/>
<path d="M25.7778 16.125H6.22222C5.68889 16.125 5.33333 15.7667 5.33333 15.2292C5.33333 14.6917 5.68889 14.3333 6.22222 14.3333H25.7778C26.3111 14.3333 26.6667 14.6917 26.6667 15.2292C26.6667 15.7667 26.3111 16.125 25.7778 16.125Z" fill="#00B956"/>
<path d="M25.7778 10.75H16.8889C16.3556 10.75 16 10.3917 16 9.85417C16 9.31667 16.3556 8.95833 16.8889 8.95833H25.7778C26.3111 8.95833 26.6667 9.31667 26.6667 9.85417C26.6667 10.3917 26.3111 10.75 25.7778 10.75Z" fill="#00B956"/>
<path d="M25.7778 21.5H6.22222C5.68889 21.5 5.33333 21.1417 5.33333 20.6042C5.33333 20.0667 5.68889 19.7083 6.22222 19.7083H25.7778C26.3111 19.7083 26.6667 20.0667 26.6667 20.6042C26.6667 21.1417 26.3111 21.5 25.7778 21.5Z" fill="#00B956"/>
<path d="M25.7778 26.875H6.22222C5.68889 26.875 5.33333 26.5167 5.33333 25.9792C5.33333 25.4417 5.68889 25.0833 6.22222 25.0833H25.7778C26.3111 25.0833 26.6667 25.4417 26.6667 25.9792C26.6667 26.5167 26.3111 26.875 25.7778 26.875Z" fill="#00B956"/>
<path d="M25.7778 32.25H6.22222C5.68889 32.25 5.33333 31.8917 5.33333 31.3542C5.33333 30.8167 5.68889 30.4583 6.22222 30.4583H25.7778C26.3111 30.4583 26.6667 30.8167 26.6667 31.3542C26.6667 31.8917 26.3111 32.25 25.7778 32.25Z" fill="#00B956"/>
<path d="M25.7778 37.625H6.22222C5.68889 37.625 5.33333 37.2667 5.33333 36.7292C5.33333 36.1917 5.68889 35.8333 6.22222 35.8333H25.7778C26.3111 35.8333 26.6667 36.1917 26.6667 36.7292C26.6667 37.2667 26.3111 37.625 25.7778 37.625Z" fill="#00B956"/>
</svg>
