<svg width="32" height="44" viewBox="0 0 32 44" fill="none" xmlns="http://www.w3.org/2000/svg">
<path d="M31.1111 44H0.888889C0.355556 44 0 43.6333 0 43.0833V11.9167C0 11.7333 0.177778 11.3667 0.177778 11.1833L10.8444 0.183333C11.0222 0.183333 11.3778 0 11.5556 0H31.1111C31.6444 0 32 0.366667 32 0.916667V43.0833C32 43.6333 31.6444 44 31.1111 44ZM1.77778 42.1667H30.2222V1.83333H11.9111L1.77778 12.2833V42.1667Z" fill="#00B956"/>
<path d="M11.5556 12.8333H0.888889C0.355556 12.8333 0 12.4667 0 11.9167C0 11.3667 0.355556 11 0.888889 11H10.6667V0.916667C10.6667 0.366667 11.0222 0 11.5556 0C12.0889 0 12.4444 0.366667 12.4444 0.916667V11.9167C12.4444 12.4667 12.0889 12.8333 11.5556 12.8333Z" fill="#00B956"/>
<path d="M13.3333 31.1667C12.8 31.1667 12.4444 30.8 12.4444 30.25V19.25C12.4444 18.8833 12.6222 18.5167 12.9778 18.5167L23.6444 13.0167C24 12.8333 24.1778 12.8333 24.5333 13.0167C24.7111 13.2 24.8889 13.3833 24.8889 13.75V26.5833C24.8889 27.1333 24.5333 27.5 24 27.5C23.4667 27.5 23.1111 27.1333 23.1111 26.5833V15.2167L14.2222 19.8V30.25C14.2222 30.8 13.8667 31.1667 13.3333 31.1667Z" fill="#00B956"/>
<path d="M10.6667 33C8.71111 33 7.11111 31.7167 7.11111 30.25C7.11111 28.7833 8.71111 27.5 10.6667 27.5C12.6222 27.5 14.2222 28.7833 14.2222 30.25C14.2222 31.7167 12.6222 33 10.6667 33ZM10.6667 29.3333C9.6 29.3333 8.88889 29.8833 8.88889 30.25C8.88889 30.6167 9.6 31.1667 10.6667 31.1667C11.7333 31.1667 12.4444 30.6167 12.4444 30.25C12.4444 29.8833 11.7333 29.3333 10.6667 29.3333Z" fill="#00B956"/>
<path d="M21.3333 29.3333C19.3778 29.3333 17.7778 28.05 17.7778 26.5833C17.7778 25.1167 19.3778 23.8333 21.3333 23.8333C23.2889 23.8333 24.8889 25.1167 24.8889 26.5833C24.8889 28.05 23.2889 29.3333 21.3333 29.3333ZM21.3333 25.6667C20.2667 25.6667 19.5556 26.2167 19.5556 26.5833C19.5556 26.95 20.2667 27.5 21.3333 27.5C22.4 27.5 23.1111 26.95 23.1111 26.5833C23.1111 26.2167 22.4 25.6667 21.3333 25.6667Z" fill="#00B956"/>
</svg>
