<svg width="24" height="20" viewBox="0 0 24 20" fill="none" xmlns="http://www.w3.org/2000/svg">
<path d="M18.5 20H5.5C2.5 20 0 17.5 0 14.5V5.5C0 2.5 2.5 0 5.5 0H18.5C21.5 0 24 2.5 24 5.5V14.5C24 17.5 21.5 20 18.5 20ZM5.5 1C3 1 1 3 1 5.5V14.5C1 17 3 19 5.5 19H18.5C21 19 23 17 23 14.5V5.5C23 3 21 1 18.5 1H5.5Z" fill="#00B956"/>
<path d="M9.5 15C9.4 15 9.3 15 9.3 14.9C9.1 14.9 9 14.7 9 14.5V5.5C9 5.3 9.1 5.1 9.3 5.1C9.4 5 9.6 5 9.8 5.1L16.8 9.6C16.9 9.7 17 9.8 17 10C17 10.2 16.9 10.3 16.8 10.4L9.8 14.9C9.7 15 9.6 15 9.5 15ZM10 6.4V13.6L15.6 10L10 6.4Z" fill="#00B956"/>
</svg>
