<svg width="17" height="32" viewBox="0 0 17 32" fill="none" xmlns="http://www.w3.org/2000/svg">
<path d="M13.7308 32H3.26923C2.87692 32 2.61538 31.7333 2.61538 31.3333C2.61538 30.9333 2.87692 30.6667 3.26923 30.6667H13.7308C14.1231 30.6667 14.3846 30.9333 14.3846 31.3333C14.3846 31.7333 14.1231 32 13.7308 32Z" fill="#00B956"/>
<path d="M9.80769 22.6667H7.19231C4.70769 22.6667 2.61538 20.5333 2.61538 18V4.66667C2.61538 2.13333 4.70769 0 7.19231 0H9.80769C12.2923 0 14.3846 2.13333 14.3846 4.66667V18C14.3846 20.5333 12.2923 22.6667 9.80769 22.6667ZM7.19231 1.33333C5.36154 1.33333 3.92308 2.8 3.92308 4.66667V18C3.92308 19.8667 5.36154 21.3333 7.19231 21.3333H9.80769C11.6385 21.3333 13.0769 19.8667 13.0769 18V4.66667C13.0769 2.8 11.6385 1.33333 9.80769 1.33333H7.19231Z" fill="#00B956"/>
<path d="M11.1154 25.3333H5.88462C2.61538 25.3333 0 22.6667 0 19.3333V12.6667C0 12.2667 0.261538 12 0.653846 12C1.04615 12 1.30769 12.2667 1.30769 12.6667V19.3333C1.30769 21.8667 3.4 24 5.88462 24H11.1154C13.6 24 15.6923 21.8667 15.6923 19.3333V12.6667C15.6923 12.2667 15.9538 12 16.3462 12C16.7385 12 17 12.2667 17 12.6667V19.3333C17 22.6667 14.3846 25.3333 11.1154 25.3333Z" fill="#00B956"/>
<path d="M8.5 32C8.10769 32 7.84615 31.7333 7.84615 31.3333V24.6667C7.84615 24.2667 8.10769 24 8.5 24C8.89231 24 9.15385 24.2667 9.15385 24.6667V31.3333C9.15385 31.7333 8.89231 32 8.5 32Z" fill="#00B956"/>
<path d="M13.7308 11.8667H3.26923C2.87692 11.8667 2.61538 11.6 2.61538 11.2C2.61538 10.8 2.87692 10.5333 3.26923 10.5333H13.7308C14.1231 10.5333 14.3846 10.8 14.3846 11.2C14.3846 11.6 14.1231 11.8667 13.7308 11.8667Z" fill="#00B956"/>
</svg>
