<svg width="25" height="26" viewBox="0 0 25 26" fill="none" xmlns="http://www.w3.org/2000/svg">
<path d="M22.2826 26H2.71739C1.19565 26 0 24.8083 0 23.2917V2.70833C0 1.19167 1.19565 0 2.71739 0H22.2826C23.8043 0 25 1.19167 25 2.70833V23.2917C25 24.8083 23.8043 26 22.2826 26ZM2.71739 1.08333C1.84783 1.08333 1.08696 1.84167 1.08696 2.70833V23.2917C1.08696 24.1583 1.84783 24.9167 2.71739 24.9167H22.2826C23.1522 24.9167 23.913 24.1583 23.913 23.2917V2.70833C23.913 1.84167 23.1522 1.08333 22.2826 1.08333H2.71739Z" fill="#00B956"/>
<path d="M5.97826 8.66667C5.65217 8.66667 5.43478 8.45 5.43478 8.125V2.70833C5.43478 2.38333 5.65217 2.16667 5.97826 2.16667C6.30435 2.16667 6.52174 2.38333 6.52174 2.70833V8.125C6.52174 8.45 6.30435 8.66667 5.97826 8.66667Z" fill="#00B956"/>
<path d="M5.97826 15.1667C5.65217 15.1667 5.43478 14.95 5.43478 14.625V10.2917C5.43478 9.96667 5.65217 9.75 5.97826 9.75C6.30435 9.75 6.52174 9.96667 6.52174 10.2917V14.625C6.52174 14.95 6.30435 15.1667 5.97826 15.1667Z" fill="#00B956"/>
<path d="M12.5 15.1667C12.1739 15.1667 11.9565 14.95 11.9565 14.625V12.4583C11.9565 12.1333 12.1739 11.9167 12.5 11.9167C12.8261 11.9167 13.0435 12.1333 13.0435 12.4583V14.625C13.0435 14.95 12.8261 15.1667 12.5 15.1667Z" fill="#00B956"/>
<path d="M12.5 10.8333C12.1739 10.8333 11.9565 10.6167 11.9565 10.2917V2.70833C11.9565 2.38333 12.1739 2.16667 12.5 2.16667C12.8261 2.16667 13.0435 2.38333 13.0435 2.70833V10.2917C13.0435 10.6167 12.8261 10.8333 12.5 10.8333Z" fill="#00B956"/>
<path d="M14.6739 13H10.3261C10 13 9.78261 12.7833 9.78261 12.4583V10.2917C9.78261 9.96667 10 9.75 10.3261 9.75H14.6739C15 9.75 15.2174 9.96667 15.2174 10.2917V12.4583C15.2174 12.7833 15 13 14.6739 13ZM10.8696 11.9167H14.1304V10.8333H10.8696V11.9167Z" fill="#00B956"/>
<path d="M19.0217 15.1667C18.6957 15.1667 18.4783 14.95 18.4783 14.625V7.04167C18.4783 6.71667 18.6957 6.5 19.0217 6.5C19.3478 6.5 19.5652 6.71667 19.5652 7.04167V14.625C19.5652 14.95 19.3478 15.1667 19.0217 15.1667Z" fill="#00B956"/>
<path d="M19.0217 5.41667C18.6957 5.41667 18.4783 5.2 18.4783 4.875V2.70833C18.4783 2.38333 18.6957 2.16667 19.0217 2.16667C19.3478 2.16667 19.5652 2.38333 19.5652 2.70833V4.875C19.5652 5.2 19.3478 5.41667 19.0217 5.41667Z" fill="#00B956"/>
<path d="M21.1957 7.58333H16.8478C16.5217 7.58333 16.3043 7.36667 16.3043 7.04167V4.875C16.3043 4.55 16.5217 4.33333 16.8478 4.33333H21.1957C21.5217 4.33333 21.7391 4.55 21.7391 4.875V7.04167C21.7391 7.36667 21.5217 7.58333 21.1957 7.58333ZM17.3913 6.5H20.6522V5.41667H17.3913V6.5Z" fill="#00B956"/>
<path d="M8.15217 10.8333H3.80435C3.47826 10.8333 3.26087 10.6167 3.26087 10.2917V8.125C3.26087 7.8 3.47826 7.58333 3.80435 7.58333H8.15217C8.47826 7.58333 8.69565 7.8 8.69565 8.125V10.2917C8.69565 10.6167 8.47826 10.8333 8.15217 10.8333ZM4.34783 9.75H7.6087V8.66667H4.34783V9.75Z" fill="#00B956"/>
<path d="M19.0217 22.75C17.5 22.75 16.3043 21.5583 16.3043 20.0417C16.3043 18.525 17.5 17.3333 19.0217 17.3333C20.5435 17.3333 21.7391 18.525 21.7391 20.0417C21.7391 21.5583 20.5435 22.75 19.0217 22.75ZM19.0217 18.4167C18.1522 18.4167 17.3913 19.175 17.3913 20.0417C17.3913 20.9083 18.1522 21.6667 19.0217 21.6667C19.8913 21.6667 20.6522 20.9083 20.6522 20.0417C20.6522 19.175 20 18.4167 19.0217 18.4167Z" fill="#00B956"/>
<path d="M12.5 22.75C10.9783 22.75 9.78261 21.5583 9.78261 20.0417C9.78261 18.525 10.9783 17.3333 12.5 17.3333C14.0217 17.3333 15.2174 18.525 15.2174 20.0417C15.2174 21.5583 14.0217 22.75 12.5 22.75ZM12.5 18.4167C11.6304 18.4167 10.8696 19.175 10.8696 20.0417C10.8696 20.9083 11.6304 21.6667 12.5 21.6667C13.3696 21.6667 14.1304 20.9083 14.1304 20.0417C14.1304 19.175 13.3696 18.4167 12.5 18.4167Z" fill="#00B956"/>
<path d="M5.97826 22.75C4.45652 22.75 3.26087 21.5583 3.26087 20.0417C3.26087 18.525 4.45652 17.3333 5.97826 17.3333C7.5 17.3333 8.69565 18.525 8.69565 20.0417C8.69565 21.5583 7.5 22.75 5.97826 22.75ZM5.97826 18.4167C5.1087 18.4167 4.34783 19.175 4.34783 20.0417C4.34783 20.9083 5.1087 21.6667 5.97826 21.6667C6.84783 21.6667 7.6087 20.9083 7.6087 20.0417C7.6087 19.175 6.84783 18.4167 5.97826 18.4167Z" fill="#00B956"/>
</svg>
