<svg width="20" height="31" viewBox="0 0 20 31" fill="none" xmlns="http://www.w3.org/2000/svg">
<path d="M12.25 23.25H7.75C6.375 23.25 5.125 22.2167 4.75 20.6667C4.625 19.7625 4.25 19.1167 3.75 18.4708C3.5 18.0833 3.25 17.825 3 17.4375C1.625 15.3708 0 13.0458 0 10.3333C0 4.65 4.5 0 10 0C15.5 0 20 4.65 20 10.3333C20 13.0458 18.375 15.3708 16.875 17.4375C16.625 17.825 16.375 18.0833 16.125 18.4708C15.625 19.1167 15.375 19.8917 15.125 20.6667C14.875 22.2167 13.625 23.25 12.25 23.25ZM10 1.29167C5.125 1.29167 1.25 5.29583 1.25 10.3333C1.25 12.6583 2.75 14.725 4.125 16.6625C4.375 17.05 4.625 17.3083 4.875 17.6958C5.375 18.4708 5.75 19.375 6 20.4083C6.25 21.3125 7 21.9583 7.75 21.9583H12.125C13 21.9583 13.625 21.3125 13.875 20.4083C14.125 19.375 14.5 18.4708 15 17.6958C15.25 17.3083 15.5 17.05 15.75 16.6625C17.25 14.725 18.75 12.6583 18.75 10.3333C18.75 5.29583 14.875 1.29167 10 1.29167Z" fill="#00B956"/>
<path d="M13.125 25.8333H6.875C6.5 25.8333 6.25 25.575 6.25 25.1875C6.25 24.8 6.5 24.5417 6.875 24.5417H13.125C13.5 24.5417 13.75 24.8 13.75 25.1875C13.75 25.575 13.5 25.8333 13.125 25.8333Z" fill="#00B956"/>
<path d="M13.125 28.4167H6.875C6.5 28.4167 6.25 28.1583 6.25 27.7708C6.25 27.3833 6.5 27.125 6.875 27.125H13.125C13.5 27.125 13.75 27.3833 13.75 27.7708C13.75 28.1583 13.5 28.4167 13.125 28.4167Z" fill="#00B956"/>
<path d="M11.875 31H8.125C7.75 31 7.5 30.7417 7.5 30.3542C7.5 29.9667 7.75 29.7083 8.125 29.7083H11.875C12.25 29.7083 12.5 29.9667 12.5 30.3542C12.5 30.7417 12.25 31 11.875 31Z" fill="#00B956"/>
</svg>
