<svg width="21" height="21" viewBox="0 0 21 21" fill="none" xmlns="http://www.w3.org/2000/svg">
<path d="M10.5 21C4.725 21 0 16.275 0 10.5C0 4.725 4.725 0 10.5 0C16.275 0 21 4.725 21 10.5C21 16.275 16.275 21 10.5 21ZM10.5 0.875C5.1625 0.875 0.875 5.1625 0.875 10.5C0.875 15.8375 5.1625 20.125 10.5 20.125C15.8375 20.125 20.125 15.8375 20.125 10.5C20.125 5.1625 15.8375 0.875 10.5 0.875Z" fill="#00B956"/>
<path d="M13.5625 17.5H8.3125C7.6125 17.5 7 16.8875 7 16.1875C7 15.4875 7.6125 14.875 8.3125 14.875H8.75V12.25H8.3125C7.6125 12.25 7 11.6375 7 10.9375C7 10.2375 7.6125 9.625 8.3125 9.625H11.8125C12.5125 9.625 13.125 10.2375 13.125 10.9375V14.875H13.5625C14.2625 14.875 14.875 15.4875 14.875 16.1875C14.875 16.8875 14.2625 17.5 13.5625 17.5ZM8.3125 15.75C8.05 15.75 7.875 15.925 7.875 16.1875C7.875 16.45 8.05 16.625 8.3125 16.625H13.5625C13.825 16.625 14 16.45 14 16.1875C14 15.925 13.825 15.75 13.5625 15.75H12.6875C12.425 15.75 12.25 15.575 12.25 15.3125V10.9375C12.25 10.675 12.075 10.5 11.8125 10.5H8.3125C8.05 10.5 7.875 10.675 7.875 10.9375C7.875 11.2 8.05 11.375 8.3125 11.375H9.1875C9.45 11.375 9.625 11.55 9.625 11.8125V15.3125C9.625 15.575 9.45 15.75 9.1875 15.75H8.3125Z" fill="#00B956"/>
<path d="M10.5 8.75C9.0125 8.75 7.875 7.6125 7.875 6.125C7.875 4.6375 9.0125 3.5 10.5 3.5C11.9875 3.5 13.125 4.6375 13.125 6.125C13.125 7.6125 11.9875 8.75 10.5 8.75ZM10.5 4.375C9.5375 4.375 8.75 5.1625 8.75 6.125C8.75 7.0875 9.5375 7.875 10.5 7.875C11.4625 7.875 12.25 7.0875 12.25 6.125C12.25 5.1625 11.4625 4.375 10.5 4.375Z" fill="#00B956"/>
</svg>
