<svg width="23" height="24" viewBox="0 0 23 24" fill="none" xmlns="http://www.w3.org/2000/svg">
<path d="M21.5 24H1.5C0.7 24 0 23.3 0 22.5V17.5C0 17.2 0.2 17 0.5 17C0.8 17 1 17.2 1 17.5V22.5C1 22.8 1.2 23 1.5 23H21.5C21.8 23 22 22.8 22 22.5V17.5C22 17.2 22.2 17 22.5 17C22.8 17 23 17.2 23 17.5V22.5C23 23.3 22.3 24 21.5 24Z" fill="#8A1E9C"/>
<path d="M11.5 20C11.2 20 11 19.8 11 19.5V0.5C11 0.2 11.2 0 11.5 0C11.8 0 12 0.2 12 0.5V19.5C12 19.8 11.8 20 11.5 20Z" fill="#8A1E9C"/>
<path d="M11.5 20C11.4 20 11.2 20 11.1 19.9L5.1 13.9C4.9 13.7 4.9 13.4 5.1 13.2C5.3 13 5.6 13 5.8 13.2L11.4 18.8L17 13.2C17.2 13 17.5 13 17.7 13.2C17.9 13.4 17.9 13.7 17.7 13.9L11.7 19.9C11.8 20 11.6 20 11.5 20Z" fill="#8A1E9C"/>
</svg>
