<svg width="40" height="34" viewBox="0 0 40 34" fill="none" xmlns="http://www.w3.org/2000/svg">
<path d="M37.4622 34H2.53877C1.20835 34 0.0442341 32.81 0.0442341 31.45V7.65C0.0442341 6.29 1.20835 5.1 2.53877 5.1H37.4622C38.7926 5.1 39.9567 6.29 39.9567 7.65V31.45C39.9567 32.81 38.7926 34 37.4622 34ZM2.53877 6.8C2.03986 6.8 1.70726 7.14 1.70726 7.65V31.45C1.70726 31.96 2.03986 32.3 2.53877 32.3H37.4622C37.9611 32.3 38.2937 31.96 38.2937 31.45V7.65C38.2937 7.14 37.9611 6.8 37.4622 6.8H2.53877Z" fill="#00B956"/>
<path d="M25.8211 6.8H14.1799C13.681 6.8 13.3484 6.46 13.3484 5.95V2.55C13.3484 1.19 14.5125 0 15.8429 0H24.158C25.4885 0 26.6526 1.19 26.6526 2.55V5.95C26.6526 6.46 26.32 6.8 25.8211 6.8ZM15.0114 5.1H24.9896V2.55C24.9896 2.04 24.6569 1.7 24.158 1.7H15.8429C15.344 1.7 15.0114 2.04 15.0114 2.55V5.1Z" fill="#00B956"/>
<path d="M20.0005 21.25C18.0049 21.25 15.8429 20.91 13.8473 20.4L0.54314 16.83C0.210536 16.83 -0.122068 16.32 0.0442341 15.98C0.210536 15.47 0.709443 15.13 1.04205 15.3L14.3462 18.87C18.0049 19.89 21.9961 19.89 25.6548 18.87L38.9589 15.3C39.4578 15.13 39.7904 15.47 39.9567 15.98C40.123 16.49 39.7904 16.83 39.2915 17L25.9874 20.57C24.158 21.08 21.9961 21.25 20.0005 21.25Z" fill="#00B956"/>
<path d="M20.0005 18.7C18.1712 18.7 16.6744 17.17 16.6744 15.3C16.6744 13.43 18.1712 11.9 20.0005 11.9C21.8298 11.9 23.3265 13.43 23.3265 15.3C23.3265 17.17 21.8298 18.7 20.0005 18.7ZM20.0005 13.6C19.0027 13.6 18.3375 14.28 18.3375 15.3C18.3375 16.32 19.0027 17 20.0005 17C20.9983 17 21.6635 16.32 21.6635 15.3C21.6635 14.28 20.9983 13.6 20.0005 13.6Z" fill="#00B956"/>
</svg>
