<svg width="38" height="38" viewBox="0 0 38 38" fill="none" xmlns="http://www.w3.org/2000/svg">
<path d="M19 38C8.55 38 0 29.45 0 19C0 8.55 8.55 0 19 0C29.45 0 38 8.55 38 19C38 29.45 29.45 38 19 38ZM19 1.58333C9.34167 1.58333 1.58333 9.34167 1.58333 19C1.58333 28.6583 9.34167 36.4167 19 36.4167C28.6583 36.4167 36.4167 28.6583 36.4167 19C36.4167 9.34167 28.6583 1.58333 19 1.58333Z" fill="#00B956"/>
<path d="M26.125 30.0833C25.9667 30.0833 25.8083 30.0833 25.65 29.925L19 25.4917L12.35 29.925C12.0333 30.0833 11.7167 30.0833 11.4 29.925C11.0833 29.7667 11.0833 29.45 11.0833 29.1333L13.3 20.9L6.65 15.675C6.33333 15.5167 6.33333 15.0417 6.33333 14.725C6.49167 14.4083 6.80833 14.25 7.125 14.25H15.3583L18.3667 6.80833C18.6833 6.175 19.6333 6.175 19.7917 6.80833L22.6417 14.25H30.875C31.1917 14.25 31.5083 14.4083 31.6667 14.725C31.825 15.0417 31.6667 15.3583 31.35 15.675L24.7 20.9L26.9167 29.1333C27.075 29.45 26.9167 29.7667 26.6 29.925C26.4417 30.0833 26.2833 30.0833 26.125 30.0833ZM19 23.75C19.1583 23.75 19.3167 23.75 19.475 23.9083L24.8583 27.55L23.1167 20.9C22.9583 20.5833 23.1167 20.2667 23.4333 20.1083L28.5 15.8333H22.1667C21.85 15.8333 21.5333 15.675 21.375 15.3583L19 9.18333L16.625 15.2C16.4667 15.675 16.15 15.8333 15.8333 15.8333H9.5L14.725 19.95C15.0417 20.1083 15.0417 20.425 15.0417 20.7417L13.3 27.3917L18.6833 23.75C18.6833 23.75 18.8417 23.75 19 23.75Z" fill="#00B956"/>
</svg>
