<svg width="36" height="36" viewBox="0 0 36 36" fill="none" xmlns="http://www.w3.org/2000/svg">
<path d="M30.75 36H5.25C2.4 36 0 33.5888 0 30.7254V15.6552C0 12.6412 2.4 10.3807 5.25 10.3807H30.75C33.6 10.3807 36 12.7919 36 15.6552V30.7254C36 33.5888 33.6 36 30.75 36ZM5.25 11.8877C3.15 11.8877 1.5 13.5454 1.5 15.6552V30.7254C1.5 32.6846 3.15 34.493 5.25 34.493H30.75C32.85 34.493 34.5 32.8353 34.5 30.7254V15.6552C34.5 13.5454 32.85 11.8877 30.75 11.8877H5.25Z" fill="#00B956"/>
<path d="M29.25 25.4509C28.05 25.4509 27 24.396 27 23.1903C27 21.9847 28.05 20.9298 29.25 20.9298C30.45 20.9298 31.5 21.9847 31.5 23.1903C31.5 24.396 30.45 25.4509 29.25 25.4509ZM29.25 22.4368C28.8 22.4368 28.5 22.7382 28.5 23.1903C28.5 23.6424 28.8 23.9438 29.25 23.9438C29.7 23.9438 30 23.6424 30 23.1903C30 22.7382 29.7 22.4368 29.25 22.4368Z" fill="#00B956"/>
<path d="M35.25 28.4649H29.25C26.4 28.4649 24 26.0537 24 23.1903C24 20.327 26.4 17.9158 29.25 17.9158H35.25C35.7 17.9158 36 18.2172 36 18.6693V27.7114C36 28.0128 35.7 28.4649 35.25 28.4649ZM29.25 19.4228C27.15 19.4228 25.5 21.0805 25.5 23.1903C25.5 25.3002 27.15 26.9579 29.25 26.9579H34.5V19.4228H29.25Z" fill="#00B956"/>
<path d="M0.75 16.4088C0.3 16.4088 0 15.9566 0 15.6552C0 12.6412 1.8 9.92857 4.65 8.72296L23.7 0.735755C25.5 -0.168456 27.45 -0.319158 28.95 0.735755C30.45 1.63997 31.35 3.29769 31.35 5.25681V11.2849C31.5 11.4356 31.2 11.8877 30.75 11.8877C30.3 11.8877 30 11.4356 30 11.1342V5.10611C30 3.74979 29.4 2.54418 28.2 1.94137C27 1.33856 25.65 1.33856 24.3 2.09207L5.25 10.0793C3 10.9835 1.5 13.0933 1.5 15.6552C1.5 15.9566 1.2 16.4088 0.75 16.4088Z" fill="#00B956"/>
<path d="M14.25 11.8877C13.95 11.8877 13.65 11.5863 13.5 11.2849C13.35 10.9835 13.65 10.5314 13.95 10.3807L25.95 5.85962C26.4 5.70892 26.7 5.85962 26.85 6.31173C27 6.76383 26.85 7.06524 26.4 7.21594L14.4 11.737C14.4 11.8877 14.4 11.8877 14.25 11.8877Z" fill="#00B956"/>
</svg>
