<svg width="36" height="36" viewBox="0 0 36 36" fill="none" xmlns="http://www.w3.org/2000/svg">
<path d="M25.5 30H3.75C1.65 30 0 28.35 0 26.25V3.75C0 1.65 1.65 0 3.75 0H15.75C16.05 0 16.35 0.15 16.5 0.45L26.25 28.95C26.4 29.25 26.25 29.4 26.1 29.7C25.95 29.85 25.8 30 25.5 30ZM3.75 1.5C2.55 1.5 1.5 2.55 1.5 3.75V26.25C1.5 27.45 2.55 28.5 3.75 28.5H24.45L15.15 1.5H3.75Z" fill="#00B956"/>
<path d="M32.25 36H20.25C19.95 36 19.65 35.85 19.5 35.55L17.25 29.55C17.1 29.1 17.25 28.8 17.7 28.65C18.15 28.5 18.45 28.65 18.6 29.1L20.7 34.65H32.25C33.45 34.65 34.5 33.6 34.5 32.4V9.9C34.5 8.55 33.45 7.5 32.25 7.5H18C17.55 7.5 17.25 7.2 17.25 6.75C17.25 6.3 17.55 6 18 6H32.25C34.35 6 36 7.65 36 9.75V32.25C36 34.35 34.35 36 32.25 36Z" fill="#00B956"/>
<path d="M20.25 36C20.1 36 19.95 36 19.8 35.85C19.5 35.55 19.5 35.1 19.8 34.8L25.05 28.8C25.35 28.5 25.8 28.5 26.1 28.8C26.4 29.1 26.4 29.55 26.1 29.85L20.85 35.85C20.7 35.85 20.4 36 20.25 36Z" fill="#00B956"/>
<path d="M14.25 21C13.95 21 13.65 20.85 13.5 20.55L10.5 12L7.5 20.55C7.35 21 6.9 21.15 6.6 21C6.15 20.85 6 20.4 6.15 20.1L9.9 9.6C10.05 9 11.1 9 11.25 9.6L15 20.1C15.15 20.55 15 20.85 14.55 21C14.4 21 14.4 21 14.25 21Z" fill="#00B956"/>
<path d="M12 16.5H9C8.55 16.5 8.25 16.2 8.25 15.75C8.25 15.3 8.55 15 9 15H12C12.45 15 12.75 15.3 12.75 15.75C12.75 16.2 12.45 16.5 12 16.5Z" fill="#00B956"/>
<path d="M32.25 16.5H21.75C21.3 16.5 21 16.2 21 15.75C21 15.3 21.3 15 21.75 15H32.25C32.7 15 33 15.3 33 15.75C33 16.2 32.7 16.5 32.25 16.5Z" fill="#00B956"/>
<path d="M26.25 16.5C25.8 16.5 25.5 16.2 25.5 15.75V14.25C25.5 13.8 25.8 13.5 26.25 13.5C26.7 13.5 27 13.8 27 14.25V15.75C27 16.2 26.7 16.5 26.25 16.5Z" fill="#00B956"/>
<path d="M24 25.5C23.7 25.5 23.55 25.35 23.4 25.2C23.1 24.9 23.25 24.45 23.55 24.15C26.85 21.75 29.25 17.1 29.25 15.75C29.25 15.3 29.55 15 30 15C30.45 15 30.75 15.3 30.75 15.75C30.75 17.7 27.9 22.95 24.45 25.35C24.3 25.5 24.15 25.5 24 25.5Z" fill="#00B956"/>
<path d="M30 27C29.85 27 29.7 27 29.55 26.85C28.95 26.4 24.15 21.9 23.4 19.8C23.25 19.35 23.4 19.05 23.85 18.75C24.3 18.6 24.6 18.75 24.9 19.2C25.5 20.7 29.25 24.45 30.75 25.65C31.05 25.95 31.05 26.4 30.75 26.7C30.45 26.85 30.15 27 30 27Z" fill="#00B956"/>
</svg>
