<svg width="32" height="43" viewBox="0 0 32 43" fill="none" xmlns="http://www.w3.org/2000/svg">
<path d="M31.1111 43H0.888889C0.355556 43 0 42.6417 0 42.1042V11.6458C0 11.4667 0.177778 11.1083 0.177778 10.9292L10.8444 0.179167C11.0222 0.179167 11.3778 0 11.5556 0H31.1111C31.6444 0 32 0.358333 32 0.895833V42.1042C32 42.6417 31.6444 43 31.1111 43ZM1.77778 41.2083H30.2222V1.79167H11.9111L1.77778 12.0042V41.2083Z" fill="#00B956"/>
<path d="M11.5556 12.5417H0.888889C0.355556 12.5417 0 12.1833 0 11.6458C0 11.1083 0.355556 10.75 0.888889 10.75H10.6667V0.895833C10.6667 0.358333 11.0222 0 11.5556 0C12.0889 0 12.4444 0.358333 12.4444 0.895833V11.6458C12.4444 12.1833 12.0889 12.5417 11.5556 12.5417Z" fill="#00B956"/>
<path d="M13.3333 30.4583C12.8 30.4583 12.4444 30.1 12.4444 29.5625V18.8125C12.4444 18.4542 12.6222 18.0958 12.9778 18.0958L23.6444 12.7208C24 12.5417 24.1778 12.5417 24.5333 12.7208C24.7111 12.9 24.8889 13.0792 24.8889 13.4375V25.9792C24.8889 26.5167 24.5333 26.875 24 26.875C23.4667 26.875 23.1111 26.5167 23.1111 25.9792V14.8708L14.2222 19.35V29.5625C14.2222 30.1 13.8667 30.4583 13.3333 30.4583Z" fill="#00B956"/>
<path d="M10.6667 32.25C8.71111 32.25 7.11111 30.9958 7.11111 29.5625C7.11111 28.1292 8.71111 26.875 10.6667 26.875C12.6222 26.875 14.2222 28.1292 14.2222 29.5625C14.2222 30.9958 12.6222 32.25 10.6667 32.25ZM10.6667 28.6667C9.6 28.6667 8.88889 29.2042 8.88889 29.5625C8.88889 29.9208 9.6 30.4583 10.6667 30.4583C11.7333 30.4583 12.4444 29.9208 12.4444 29.5625C12.4444 29.2042 11.7333 28.6667 10.6667 28.6667Z" fill="#00B956"/>
<path d="M21.3333 28.6667C19.3778 28.6667 17.7778 27.4125 17.7778 25.9792C17.7778 24.5458 19.3778 23.2917 21.3333 23.2917C23.2889 23.2917 24.8889 24.5458 24.8889 25.9792C24.8889 27.4125 23.2889 28.6667 21.3333 28.6667ZM21.3333 25.0833C20.2667 25.0833 19.5556 25.6208 19.5556 25.9792C19.5556 26.3375 20.2667 26.875 21.3333 26.875C22.4 26.875 23.1111 26.3375 23.1111 25.9792C23.1111 25.6208 22.4 25.0833 21.3333 25.0833Z" fill="#00B956"/>
</svg>
