<svg width="26" height="34" viewBox="0 0 26 34" fill="none" xmlns="http://www.w3.org/2000/svg">
<g clip-path="url(#clip0)">
<path d="M0 16.8716C0 14.9644 0.159811 13.754 4.14279 10.7954C7.42506 8.35023 17.9849 0 17.9849 0V13.9374H26.0123V34H2.5078C1.13097 34 0 32.8752 0 31.5059V16.8716Z" fill="#B7B7B7"/>
<path d="M17.9848 13.9375V22.0188L3.23303 32.0073L21.8817 25.9799V13.9375H17.9848Z" fill="#9E9E9E"/>
<path d="M11.236 13.522C12.0965 12.495 13.3627 12.1405 14.0511 12.7151C14.7395 13.2897 14.6043 14.5856 13.7438 15.6126C12.8832 16.6396 11.617 16.9941 10.9286 16.4195C10.2402 15.8449 10.3754 14.5489 11.236 13.522Z" fill="#9E9E9E"/>
</g>
<defs>
<clipPath id="clip0">
<rect width="26" height="34" fill="white"/>
</clipPath>
</defs>
</svg>
