<svg width="69" height="18" viewBox="0 0 69 18" fill="none" xmlns="http://www.w3.org/2000/svg">
<path d="M29.2249 2.69385H26.1399V2.18288C26.1399 1.88094 25.928 1.60224 25.4099 1.57901C25.1038 1.55578 24.7976 1.90417 24.7741 2.20611C24.7505 2.6474 25.2922 2.90288 25.928 3.08869C28.0945 3.71578 29.2956 4.15707 29.272 5.89901C29.2249 7.36224 27.7884 8.26804 25.4099 8.26804C23.785 8.26804 21.4771 8.05901 21.4536 5.6203H24.6328C24.6328 5.75965 24.6328 5.89901 24.6328 6.06159C24.6092 6.4332 24.986 6.68869 25.2922 6.68869C25.7867 6.71191 26.0222 6.3403 26.0457 6.01514C26.0928 5.43449 25.3863 5.22546 24.9625 5.15578C22.7724 4.78417 21.4771 3.97127 21.5713 2.53127C21.7126 0.440945 23.9734 0.0693318 25.5276 0.046106C27.0584 -0.000345603 29.1307 0.696429 29.2249 2.69385ZM51.0082 9.66159H52.4447C54.4935 9.66159 56.1655 11.3106 56.1655 13.308V14.33C56.1655 16.3506 54.4935 17.9764 52.4447 17.9764H51.0082C48.9594 17.9764 47.3109 16.3274 47.3109 14.33V13.308C47.3109 11.3106 48.9594 9.66159 51.0082 9.66159ZM29.743 10.1029V15.0035C29.743 16.6293 28.3771 17.9764 26.7287 17.9764H24.6328C22.9843 17.9764 21.6184 16.6293 21.6184 15.0035V10.1029H24.8918V15.0732C24.8918 15.4913 25.2451 15.8397 25.6689 15.8397C26.0928 15.8397 26.4461 15.4913 26.4461 15.0732V10.1029H29.743ZM42.1771 17.7906H45.4976V10.1029H42.1771V17.7906ZM57.8846 10.1029H61.9352L63.3481 13.7261V10.1029H65.9857V17.7906H62.1235L60.4986 13.6332V17.7906H57.8846V10.1029ZM31.9567 10.1029H36.0072L37.4201 13.7261V10.1029H40.0341V17.7906H36.1485L34.5471 13.6332V17.7906H31.9567V10.1029ZM57.9082 0.324816H61.9823L63.3952 3.94804V0.324816H66.0092V8.01256H62.1471L60.5222 3.85514V8.01256H57.9082V0.324816ZM52.0444 5.36482H51.2672V8.01256H48.0645V0.324816H53.999C54.8939 0.324816 55.8123 0.835783 55.8358 2.25256C55.8594 3.06546 55.5297 3.73901 54.3287 4.20353C55.3177 4.41256 55.7887 5.13256 55.7887 5.87578V7.17643C55.7887 7.47836 55.8358 7.75707 56.0007 8.03578H52.8215C52.6096 7.80352 52.5625 7.45514 52.5625 7.1532V6.22417C52.5625 5.80611 52.3741 5.36482 52.0444 5.36482ZM30.1904 0.324816H37.6792V2.20611H35.5833V8.01256H32.2864V2.20611H30.214V0.324816H30.1904ZM39.2099 0.324816H45.7567V2.15965H42.3655V3.15836H45.7567V5.08611H42.3655V6.08482H45.7567V8.01256H39.2099V0.324816ZM13.1877 0.324816H19.7345V2.15965H16.3669V3.15836H19.758V5.08611H16.3669V6.08482H19.758V8.01256H13.1877V0.324816ZM5.86382 3.66933L5.08669 8.01256H1.71911L0 0.324816H2.75529L3.53242 4.29643L4.21536 0.324816H7.53584L8.24232 4.29643L8.94881 0.324816H11.7512L10.0792 8.01256H6.64096L5.86382 3.66933ZM68.4348 0.348042H69V17.5816H68.4348V0.348042Z" fill="#B7B7B7"/>
<path d="M51.7147 11.4968C52.5624 11.4968 52.6802 12.5419 52.6802 13.8194C52.6802 15.0968 52.5624 16.1419 51.7147 16.1419C50.8904 16.1419 50.7491 15.0968 50.7491 13.8194C50.7491 12.5419 50.8904 11.4968 51.7147 11.4968ZM52.0208 3.59999H51.2908V1.92773H52.0208C52.5153 1.92773 52.7508 2.3458 52.7508 2.76386C52.7508 3.18193 52.4918 3.59999 52.0208 3.59999Z" fill="#B7B7B7"/>
</svg>
