<svg width="62" height="20" viewBox="0 0 62 20" fill="none" xmlns="http://www.w3.org/2000/svg">
<g clip-path="url(#clip0)">
<path d="M26.8775 19.666H21.8179L24.9798 0.345737H30.0394L26.8775 19.666ZM17.5627 0.345737L12.7389 13.6332L12.1672 10.7706L10.4669 2.08614C10.4669 2.08614 10.2606 0.345737 8.06825 0.345737H0.0942966L0 0.670964C0 0.670964 2.43698 1.17492 5.2924 2.88016L9.68897 19.666H14.9607L23.0084 0.345737H17.5627ZM57.353 19.666H62L57.9482 0.345737H53.8817C52.0046 0.345737 51.5449 1.78435 51.5449 1.78435L44.0011 19.666H49.2759L50.3308 16.7975H56.7606L57.353 19.666ZM51.7865 12.8304L54.4445 5.59918L55.9385 12.8304H51.7865ZM44.396 4.99268L45.118 0.843832C45.118 0.843832 42.8902 0 40.5682 0C38.0575 0 32.0962 1.08995 32.0962 6.39613C32.0962 11.3888 39.0948 11.4503 39.0948 14.0727C39.0948 16.695 32.8182 16.2233 30.7466 14.5708L29.9952 18.9101C29.9952 18.9101 32.2553 20 35.706 20C39.1596 20 44.3665 18.2215 44.3665 13.3841C44.3665 8.35921 37.3061 7.89335 37.3061 5.70759C37.3061 3.52476 42.2331 3.80604 44.396 4.99268Z" fill="#B7B7B7"/>
<path d="M12.1702 10.7735L10.4669 2.08318C10.4669 2.08318 10.2606 0.342773 8.06825 0.342773H0.0942966L0 0.67093C0 0.67093 3.83375 1.46202 7.50836 4.41837C11.0239 7.24872 12.1702 10.7735 12.1702 10.7735Z" fill="#9E9E9E"/>
</g>
<defs>
<clipPath id="clip0">
<rect width="62" height="20" fill="white"/>
</clipPath>
</defs>
</svg>
