<svg width="45" height="28" viewBox="0 0 45 28" fill="none" xmlns="http://www.w3.org/2000/svg">
<g clip-path="url(#clip0)">
<path d="M28.5857 25.0082H16.4166V2.99414H28.5857V25.0082Z" fill="#FF5F00"/>
<path d="M17.1883 14.0007C17.1883 9.53443 19.2648 5.5574 22.5 2.99362C20.0522 1.0504 17.024 -0.00500341 13.9059 -0.000473761C6.22513 -0.000473761 0 6.26856 0 14.0007C0 21.7328 6.22513 28.0018 13.9059 28.0018C17.024 28.0063 20.0522 26.9509 22.5 25.0077C19.2648 22.4439 17.1883 18.4669 17.1883 14.0007Z" fill="#EB001B"/>
<path d="M45 14.0011C45 21.7332 38.7749 28.0023 31.0941 28.0023C27.976 28.0068 24.9478 26.9514 22.5 25.0082C25.7352 22.4444 27.8117 18.4674 27.8117 14.0011C27.8117 9.53492 25.7352 5.55789 22.5 2.99411C24.9478 1.05089 27.9782 -0.00451512 31.0964 1.45198e-05C38.7749 1.45198e-05 45 6.26904 45 14.0011Z" fill="#F79E1B"/>
</g>
<defs>
<clipPath id="clip0">
<rect width="45" height="28" fill="white"/>
</clipPath>
</defs>
</svg>
