<svg width="41" height="41" viewBox="0 0 41 41" fill="none" xmlns="http://www.w3.org/2000/svg">
<path d="M29.9478 32.087C18.3609 32.087 8.91304 22.6391 8.91304 11.0522C8.91304 9.80435 9.80435 8.91304 11.0522 8.91304H15.1522C16.2217 8.91304 17.2913 9.80435 17.2913 11.0522C17.2913 12.4783 17.4696 13.7261 18.0043 14.9739C18.1826 15.687 18.0043 16.5783 17.4696 17.113L15.687 19.4304C17.113 22.1043 18.8957 23.887 21.7478 25.4913L24.2435 23.7087C24.7783 23.1739 25.4913 22.9957 26.2043 23.3522C27.4522 23.7087 28.8783 24.0652 30.1261 24.0652C31.1956 24.0652 32.2652 24.9565 32.2652 26.2043V30.3043C32.087 31.1957 31.1956 32.087 29.9478 32.087ZM11.0522 10.6957C10.8739 10.6957 10.6957 10.8739 10.6957 11.0522C10.6957 21.7478 19.4304 30.3043 29.9478 30.3043C30.1261 30.3043 30.3043 30.1261 30.3043 29.9478V25.8478C30.3043 25.6696 30.1261 25.4913 29.9478 25.4913C28.3435 25.4913 26.9174 25.313 25.4913 24.7783C25.313 24.7783 25.313 24.7783 25.1348 24.7783L22.1043 27.0957C21.7478 27.2739 21.3913 27.2739 21.213 27.0957C17.6478 25.313 15.5087 23.1739 13.7261 19.6087C13.5478 19.2522 13.5478 18.8957 13.7261 18.7174L16.0435 15.8652C16.2217 15.687 16.2217 15.5087 16.2217 15.5087C15.687 14.0826 15.5087 12.4783 15.5087 11.0522C15.5087 10.8739 15.3304 10.6957 15.1522 10.6957H11.0522Z" fill="#00B956"/>
<path d="M20.5 41C9.26956 41 0 31.7304 0 20.5C0 9.26956 9.26956 0 20.5 0C31.7304 0 41 9.26956 41 20.5C41 21.0348 40.6435 21.3913 40.1087 21.3913C39.5739 21.3913 39.2174 21.0348 39.2174 20.5C39.2174 10.1609 30.8391 1.78261 20.5 1.78261C10.1609 1.78261 1.78261 10.1609 1.78261 20.5C1.78261 30.8391 10.1609 39.2174 20.5 39.2174C26.7391 39.2174 32.8 36.0087 34.7609 31.7304C35.1174 30.8391 35.1174 30.3043 34.9391 29.7696C34.4044 29.0565 32.9783 28.5217 31.1957 28.7C30.6609 28.7 30.3043 28.3435 30.3043 27.8087C30.3043 27.2739 30.6609 26.9174 31.1957 26.9174C33.6913 26.7391 35.6522 27.4522 36.5435 28.7C37.0783 29.413 37.4348 30.6609 36.5435 32.4435C34.0478 37.4348 27.2739 41 20.5 41Z" fill="#00B956"/>
</svg>
