<svg width="24" height="24" viewBox="0 0 24 24" fill="none" xmlns="http://www.w3.org/2000/svg">
<path d="M18.5 24H5.5C2.5 24 0 21.5 0 18.5V5.5C0 2.5 2.5 0 5.5 0H18.5C21.5 0 24 2.5 24 5.5V18.5C24 21.5 21.5 24 18.5 24ZM5.5 1C3 1 1 3 1 5.5V18.5C1 21 3 23 5.5 23H18.5C21 23 23 21 23 18.5V5.5C23 3 21 1 18.5 1H5.5Z" fill="#8A1E9C"/>
<path d="M9.5 17C9.4 17 9.3 17 9.3 16.9C9.1 16.9 9 16.7 9 16.5V7.5C9 7.3 9.1 7.1 9.3 7.1C9.4 7 9.6 7 9.8 7.1L16.8 11.6C16.9 11.7 17 11.9 17 12C17 12.1 16.9 12.3 16.8 12.4L9.8 16.9C9.7 17 9.6 17 9.5 17ZM10 8.4V15.6L15.6 12L10 8.4Z" fill="#8A1E9C"/>
</svg>
