<svg width="10" height="13" viewBox="0 0 10 13" fill="none" xmlns="http://www.w3.org/2000/svg">
<path d="M9.23725 8.72C9.33325 8.72 9.41325 8.75733 9.47725 8.832C9.55192 8.896 9.58925 8.97067 9.58925 9.056C9.57858 9.6 9.39192 10.112 9.02925 10.592C8.67725 11.0613 8.15458 11.44 7.46125 11.728C6.77858 12.016 5.95725 12.16 4.99725 12.16C4.21858 12.16 3.52525 12.032 2.91725 11.776C2.30925 11.5093 1.82925 11.1307 1.47725 10.64C1.13592 10.1493 0.96525 9.584 0.96525 8.944C0.96525 8.58133 1.02392 8.25067 1.14125 7.952H0.80525C0.698583 7.952 0.607917 7.91467 0.53325 7.84C0.458583 7.76533 0.42125 7.67467 0.42125 7.568V7.136C0.42125 7.01867 0.458583 6.928 0.53325 6.864C0.607917 6.78933 0.698583 6.752 0.80525 6.752H2.14925C2.41592 6.57067 2.78392 6.384 3.25325 6.192H0.80525C0.698583 6.192 0.607917 6.15467 0.53325 6.08C0.458583 6.00533 0.42125 5.91467 0.42125 5.808V5.376C0.42125 5.25867 0.458583 5.168 0.53325 5.104C0.607917 5.02933 0.698583 4.992 0.80525 4.992H6.18125C6.43725 4.832 6.62392 4.66133 6.74125 4.48C6.86925 4.288 6.93325 4.064 6.93325 3.808C6.93325 3.38133 6.79458 3.056 6.51725 2.832C6.23992 2.59733 5.86125 2.48 5.38125 2.48C4.81592 2.48 4.34658 2.592 3.97325 2.816C3.61058 3.04 3.38125 3.33333 3.28525 3.696C3.19992 3.888 3.03992 3.984 2.80525 3.984H1.28525C1.18925 3.984 1.10925 3.952 1.04525 3.888C0.98125 3.81333 0.94925 3.73333 0.94925 3.648C0.94925 3.18933 1.12525 2.73067 1.47725 2.272C1.82925 1.80267 2.34125 1.41333 3.01325 1.104C3.68525 0.794666 4.47458 0.639999 5.38125 0.639999C6.11725 0.639999 6.75192 0.773333 7.28525 1.04C7.82925 1.30667 8.24525 1.67467 8.53325 2.144C8.82125 2.61333 8.96525 3.136 8.96525 3.712C8.96525 4.20267 8.85858 4.62933 8.64525 4.992H9.18925C9.30658 4.992 9.39725 5.02933 9.46125 5.104C9.53592 5.168 9.57325 5.25867 9.57325 5.376V5.808C9.57325 5.91467 9.53592 6.00533 9.46125 6.08C9.39725 6.15467 9.30658 6.192 9.18925 6.192H7.14125C6.79992 6.352 6.36792 6.51733 5.84525 6.688L5.65325 6.752H9.18925C9.30658 6.752 9.39725 6.78933 9.46125 6.864C9.53592 6.928 9.57325 7.01867 9.57325 7.136V7.568C9.57325 7.67467 9.53592 7.76533 9.46125 7.84C9.39725 7.91467 9.30658 7.952 9.18925 7.952H3.28525C3.09325 8.176 2.99725 8.464 2.99725 8.816C2.99725 9.28533 3.16792 9.65333 3.50925 9.92C3.85058 10.176 4.32525 10.304 4.93325 10.304C5.62658 10.304 6.15992 10.1813 6.53325 9.936C6.91725 9.69067 7.17325 9.38667 7.30125 9.024C7.40792 8.82133 7.56792 8.72 7.78125 8.72H9.23725Z" fill="white"/>
</svg>
