<svg width="22" height="13" viewBox="0 0 22 13" fill="none" xmlns="http://www.w3.org/2000/svg">
<path d="M10.7149 12.4414H12.0239C12.0239 12.4414 12.4192 12.3978 12.6213 12.1803C12.8071 11.9805 12.8012 11.6054 12.8012 11.6054C12.8012 11.6054 12.7756 9.84896 13.5906 9.59029C14.3944 9.33538 15.4263 11.2878 16.52 12.0386C17.347 12.6066 17.9755 12.4823 17.9755 12.4823L20.9002 12.4414C20.9002 12.4414 22.43 12.347 21.7046 11.1441C21.6452 11.0459 21.2819 10.2544 19.53 8.62811C17.696 6.92603 17.9418 7.2014 20.1508 4.25713C21.4961 2.46412 22.0338 1.36951 21.8658 0.900735C21.7057 0.454097 20.7162 0.572065 20.7162 0.572065L17.4233 0.592432C17.4233 0.592432 17.179 0.559165 16.9981 0.667432C16.8211 0.773334 16.7075 1.02074 16.7075 1.02074C16.7075 1.02074 16.1861 2.40815 15.4913 3.58823C14.0251 6.07802 13.4387 6.20982 13.199 6.05499C12.6413 5.69462 12.7807 4.60757 12.7807 3.8351C12.7807 1.42211 13.1467 0.416064 12.068 0.155595C11.7101 0.0692273 11.4464 0.0120927 10.531 0.00275929C9.35597 -0.00917416 8.3617 0.00635942 7.7986 0.282229C7.42397 0.465697 7.13493 0.874435 7.31107 0.897969C7.52874 0.926936 8.0215 1.03097 8.2828 1.38647C8.62034 1.84568 8.60853 2.87659 8.60853 2.87659C8.60853 2.87659 8.80247 5.71705 8.1557 6.06979C7.7119 6.31179 7.10297 5.81775 5.7957 3.55886C5.126 2.40178 4.6202 1.12267 4.6202 1.12267C4.6202 1.12267 4.5228 0.883669 4.34884 0.755734C4.13784 0.600732 3.843 0.551598 3.843 0.551598L0.713803 0.572032C0.713803 0.572032 0.244136 0.585165 0.0715693 0.7894C-0.081964 0.971235 0.0593023 1.34691 0.0593023 1.34691C0.0593023 1.34691 2.50897 7.07836 5.283 9.96672C7.82684 12.6152 10.7149 12.4414 10.7149 12.4414Z" fill="#B7B7B7"/>
</svg>
