<svg width="14" height="24" viewBox="0 0 14 24" fill="none" xmlns="http://www.w3.org/2000/svg">
<path d="M6.99983 3.63012C8.42411 3.63012 9.58265 4.78047 9.58265 6.19469C9.58265 7.60772 8.42381 8.75807 6.99983 8.75807C5.57644 8.75807 4.4176 7.60772 4.4176 6.19469C4.4173 4.78018 5.57674 3.63012 6.99983 3.63012ZM6.99983 12.3864C10.4402 12.3864 13.238 9.60927 13.238 6.19469C13.238 2.77833 10.4405 0 6.99983 0C3.55975 0 0.761639 2.77863 0.761639 6.19469C0.761639 9.60927 3.55975 12.3864 6.99983 12.3864ZM9.52353 17.4388C10.8068 17.1486 12.0315 16.6451 13.1458 15.9495C13.556 15.6933 13.8468 15.2857 13.9544 14.8165C14.062 14.3473 13.9774 13.8548 13.7193 13.4475C13.5917 13.2456 13.4252 13.0707 13.2295 12.9328C13.0337 12.7948 12.8124 12.6966 12.5784 12.6436C12.3443 12.5906 12.102 12.584 11.8654 12.624C11.6287 12.6641 11.4024 12.7501 11.1992 12.8771C8.64358 14.4725 5.35429 14.4713 2.80073 12.8771C2.59761 12.7501 2.37126 12.664 2.13463 12.6239C1.898 12.5839 1.65573 12.5905 1.42169 12.6435C1.18764 12.6965 0.966415 12.7947 0.770666 12.9327C0.574918 13.0707 0.40849 13.2456 0.280906 13.4475C0.0227453 13.8547 -0.0619486 14.3471 0.0454505 14.8163C0.15285 15.2855 0.443546 15.6931 0.853606 15.9495C1.96779 16.6448 3.19221 17.1483 4.47523 17.4388L0.987972 20.902C0.645271 21.2424 0.452791 21.704 0.452875 22.1853C0.452959 22.6666 0.645599 23.1282 0.98842 23.4685C1.33124 23.8087 1.79616 23.9999 2.2809 23.9998C2.76563 23.9997 3.23048 23.8084 3.57318 23.468L6.99923 20.0656L10.4274 23.4683C10.5969 23.6369 10.7982 23.7706 11.0198 23.8618C11.2414 23.953 11.4789 24 11.7188 24C11.9587 24 12.1962 23.953 12.4178 23.8618C12.6394 23.7706 12.8407 23.6369 13.0102 23.4683C13.1802 23.3 13.3151 23.1001 13.4071 22.8799C13.4991 22.6598 13.5465 22.4238 13.5465 22.1854C13.5465 21.9471 13.4991 21.7111 13.4071 21.4909C13.3151 21.2708 13.1802 21.0708 13.0102 20.9026L9.52353 17.4388Z" fill="white"/>
</svg>
