<svg width="42" height="80" viewBox="0 0 42 80" fill="none" xmlns="http://www.w3.org/2000/svg">
<path d="M33.9231 80H8.07692C7.10769 80 6.46154 79.3333 6.46154 78.3333C6.46154 77.3333 7.10769 76.6667 8.07692 76.6667H33.9231C34.8923 76.6667 35.5385 77.3333 35.5385 78.3333C35.5385 79.3333 34.8923 80 33.9231 80Z" fill="#00B956"/>
<path d="M24.2308 56.6667H17.7692C11.6308 56.6667 6.46154 51.3333 6.46154 45V11.6667C6.46154 5.33333 11.6308 0 17.7692 0H24.2308C30.3692 0 35.5385 5.33333 35.5385 11.6667V45C35.5385 51.3333 30.3692 56.6667 24.2308 56.6667ZM17.7692 3.33333C13.2462 3.33333 9.69231 7 9.69231 11.6667V45C9.69231 49.6667 13.2462 53.3333 17.7692 53.3333H24.2308C28.7538 53.3333 32.3077 49.6667 32.3077 45V11.6667C32.3077 7 28.7538 3.33333 24.2308 3.33333H17.7692Z" fill="#00B956"/>
<path d="M27.4615 63.3333H14.5385C6.46154 63.3333 0 56.6667 0 48.3333V31.6667C0 30.6667 0.646154 30 1.61538 30C2.58462 30 3.23077 30.6667 3.23077 31.6667V48.3333C3.23077 54.6667 8.4 60 14.5385 60H27.4615C33.6 60 38.7692 54.6667 38.7692 48.3333V31.6667C38.7692 30.6667 39.4154 30 40.3846 30C41.3538 30 42 30.6667 42 31.6667V48.3333C42 56.6667 35.5385 63.3333 27.4615 63.3333Z" fill="#00B956"/>
<path d="M21 80C20.0308 80 19.3846 79.3333 19.3846 78.3333V61.6667C19.3846 60.6667 20.0308 60 21 60C21.9692 60 22.6154 60.6667 22.6154 61.6667V78.3333C22.6154 79.3333 21.9692 80 21 80Z" fill="#00B956"/>
<path d="M33.9231 29.6667H8.07692C7.10769 29.6667 6.46154 29 6.46154 28C6.46154 27 7.10769 26.3333 8.07692 26.3333H33.9231C34.8923 26.3333 35.5385 27 35.5385 28C35.5385 29 34.8923 29.6667 33.9231 29.6667Z" fill="#00B956"/>
</svg>
