<svg width="76" height="63" viewBox="0 0 76 63" fill="none" xmlns="http://www.w3.org/2000/svg">
<path d="M58.5833 63H17.4167C7.91667 63 0 55.125 0 45.675V17.325C0 7.875 7.91667 0 17.4167 0H58.5833C68.0833 0 76 7.875 76 17.325V45.675C76 55.125 68.0833 63 58.5833 63ZM17.4167 3.15C9.5 3.15 3.16667 9.45 3.16667 17.325V45.675C3.16667 53.55 9.5 59.85 17.4167 59.85H58.5833C66.5 59.85 72.8333 53.55 72.8333 45.675V17.325C72.8333 9.45 66.5 3.15 58.5833 3.15H17.4167Z" fill="#00B956"/>
<path d="M30.0833 47.25C29.7667 47.25 29.45 47.25 29.45 46.935C28.8167 46.935 28.5 46.305 28.5 45.675V17.325C28.5 16.695 28.8167 16.065 29.45 16.065C29.7667 15.75 30.4 15.75 31.0333 16.065L53.2 30.24C53.5167 30.555 53.8333 30.87 53.8333 31.5C53.8333 32.13 53.5167 32.445 53.2 32.76L31.0333 46.935C30.7167 47.25 30.4 47.25 30.0833 47.25ZM31.6667 20.16V42.84L49.4 31.5L31.6667 20.16Z" fill="#00B956"/>
</svg>
